<svg xmlns="http://www.w3.org/2000/svg" xmlns:xlink="http://www.w3.org/1999/xlink" viewBox="0 0 100 100">
    <g stroke="none" stroke-width="1" fill="none" fill-rule="evenodd">
        <g fill="#aafcb8">
            <path d="M33.3832069,61.2316055 C33.4663305,61.1252515 33.7052431,60.8852671 34.0606164,60.6356114 C34.613312,60.2473334 35.2172668,60.0168253 35.8618908,59.9992577 L35.7533604,59.9992696 C36.4066289,60.0169293 37.0106683,60.2470018 37.5592314,60.6337226 C37.910109,60.881081 38.144039,61.1181155 38.2235934,61.221285 L39.4448784,62.8050978 L42.612504,60.3625278 L41.391219,58.778715 C41.0848685,58.3814269 40.5779442,57.8677752 39.8639741,57.3644473 C38.7121463,56.5524427 37.3707855,56.0415318 35.861452,56.0007304 L35.7529217,56.0007423 C34.2523726,56.0416358 32.9148757,56.5521111 31.7612415,57.3625585 C31.0480478,57.8635891 30.5396267,58.374291 30.2316055,58.7683945 L29,60.3441952 L32.1516014,62.8074062 L33.3832069,61.2316055 Z M61.3832069,61.2316055 C61.4663305,61.1252515 61.7052431,60.8852671 62.0606164,60.6356114 C62.613312,60.2473334 63.2172668,60.0168253 63.8618908,59.9992577 L63.7533604,59.9992696 C64.4066289,60.0169293 65.0106683,60.2470018 65.5592314,60.6337226 C65.910109,60.881081 66.144039,61.1181155 66.2235934,61.221285 L67.4448784,62.8050978 L70.612504,60.3625278 L69.391219,58.778715 C69.0848685,58.3814269 68.5779442,57.8677752 67.8639741,57.3644473 C66.7121463,56.5524427 65.3707855,56.0415318 63.861452,56.0007304 L63.7529217,56.0007423 C62.2523726,56.0416358 60.9148757,56.5521111 59.7612415,57.3625585 C59.0480478,57.8635891 58.5396267,58.374291 58.2316055,58.7683945 L57,60.3441952 L60.1516014,62.8074062 L61.3832069,61.2316055 Z"></path>
            <path d="M50,20 C71.4336483,20 81.3822646,28.613774 86.0000023,36.6100918 L86,11.9417476 L86,10 L90,10 L90,11.9417476 L90,58.0582524 L90,59.0291262 L90,70 C90,70 90,90 50,90 C10,90 10,70 10,70 L10,59.0291262 L10,58.0582524 L10,11.9417476 L10,10 L14,10 L14,11.9417476 L14,36.6100878 C18.6177354,28.613774 28.5663517,20 50,20 Z M20,60 C20,51.7157288 26.7081139,45 35.0050808,45 L64.9949192,45 C73.2819965,45 80,51.7139073 80,60 C80,68.2842712 73.2918861,75 64.9949192,75 L35.0050808,75 C26.7180035,75 20,68.2860927 20,60 Z M14,10 C14,8.8954305 13.1045695,8 12,8 C10.8954305,8 10,8.8954305 10,10 L14,10 Z M90,10 C90,8.8954305 89.1045695,8 88,8 C86.8954305,8 86,8.8954305 86,10 L90,10 Z"></path>
        </g>
    </g>
</svg>